HIERARCHY
ROOT Hips
{
	OFFSET 0.000000 0.000000 0.000000
	CHANNELS 6 Xposition Yposition Zposition Zrotation Yrotation Xrotation 
	JOINT LeftUpLeg_virtual
	{
		OFFSET 0.000000 0.000000 0.000000
		CHANNELS 3 Zrotation Yrotation Xrotation
		JOINT LeftUpLeg
		{
			OFFSET 10.205400 -3.823500 0.155100
			CHANNELS 3 Zrotation Yrotation Xrotation
			JOINT LeftLeg
			{
				OFFSET 0.708757 -12.982077 0.567790
				CHANNELS 3 Zrotation Yrotation Xrotation
				JOINT LeftFoot
				{
					OFFSET -0.708756 -10.717838 -2.184338
					CHANNELS 3 Zrotation Yrotation Xrotation
					JOINT LeftToeBase
					{
						OFFSET 0.108149 -7.191104 7.560241
						CHANNELS 3 Zrotation Yrotation Xrotation
						End Site
						{
							OFFSET 0.000000 0.000000 0.000000
						}
					}
				}
			}
		}
	}
	JOINT RightUpLeg_virtual
	{
		OFFSET 0.000000 0.000000 0.000000
		CHANNELS 3 Zrotation Yrotation Xrotation
		JOINT RightUpLeg
		{
			OFFSET -10.205400 -3.823500 0.005500
			CHANNELS 3 Zrotation Yrotation Xrotation
			JOINT RightLeg
			{
				OFFSET -0.708756 -12.982134 0.610632
				CHANNELS 3 Zrotation Yrotation Xrotation
				JOINT RightFoot
				{
					OFFSET 0.708754 -10.717769 -1.945823
					CHANNELS 3 Zrotation Yrotation Xrotation
					JOINT RightToeBase
					{
						OFFSET -0.108140 -7.191069 7.372968
						CHANNELS 3 Zrotation Yrotation Xrotation
						End Site
						{
							OFFSET 0.000000 0.000000 0.000000
						}
					}
				}
			}
		}
	}
	JOINT Spine_virtual
	{
		OFFSET 0.000000 0.000000 0.000000
		CHANNELS 3 Zrotation Yrotation Xrotation
		JOINT Spine
		{
			OFFSET 0.000000 6.876099 0.125700
			CHANNELS 3 Zrotation Yrotation Xrotation
			JOINT Spine1
			{
				OFFSET 0.000000 8.022060 0.146608
				CHANNELS 3 Zrotation Yrotation Xrotation
				JOINT Spine2
				{
					OFFSET 0.000000 9.168068 0.167552
					CHANNELS 3 Zrotation Yrotation Xrotation
					JOINT Neck_virtual
					{
						OFFSET 0.000000 0.000000 0.000000
						CHANNELS 3 Zrotation Yrotation Xrotation
						JOINT Neck
						{
							OFFSET 0.000000 10.314075 0.188496
							CHANNELS 3 Zrotation Yrotation Xrotation
							JOINT Head
							{
								OFFSET 0.000000 7.643700 -2.377400
								CHANNELS 3 Zrotation Yrotation Xrotation
								End Site
								{
									OFFSET 0.000000 0.000000 0.000000
								}
							}
						}
					}
					JOINT LeftShoulder_virtual
					{
						OFFSET 0.000000 0.000000 0.000000
						CHANNELS 3 Zrotation Yrotation Xrotation
						JOINT LeftShoulder
						{
							OFFSET 4.392200 8.824978 0.174984
							CHANNELS 3 Zrotation Yrotation Xrotation
							JOINT LeftArm
							{
								OFFSET 8.771219 -2.981674 -0.026999
								CHANNELS 3 Zrotation Yrotation Xrotation
								JOINT LeftForeArm
								{
									OFFSET 8.512804 0.000000 -0.000000
									CHANNELS 3 Zrotation Yrotation Xrotation
									JOINT LeftHand
									{
										OFFSET 18.484802 0.000000 -0.000000
										CHANNELS 3 Zrotation Yrotation Xrotation
										End Site
										{
											OFFSET 0.000000 0.000000 0.000000
										}
									}
								}
							}
						}
					}
					JOINT RightShoulder_virtual
					{
						OFFSET 0.000000 0.000000 0.000000
						CHANNELS 3 Zrotation Yrotation Xrotation
						JOINT RightShoulder
						{
							OFFSET -4.392200 8.824993 0.141379
							CHANNELS 3 Zrotation Yrotation Xrotation
							JOINT RightArm
							{
								OFFSET -8.771282 -2.981682 -0.094208
								CHANNELS 3 Zrotation Yrotation Xrotation
								JOINT RightForeArm
								{
									OFFSET -8.494598 0.000000 0.000000
									CHANNELS 3 Zrotation Yrotation Xrotation
									JOINT RightHand
									{
										OFFSET -18.483803 0.000000 0.000001
										CHANNELS 3 Zrotation Yrotation Xrotation
										End Site
										{
											OFFSET 0.000000 0.000000 0.000000
										}
									}
								}
							}
						}
					}
				}
			}
		}
	}
}
MOTION
Frames: 5
Frame Time: 0.033333
-3.345209 26.748676 -2.809188 178.552305 0.071336 179.921376 -4.179196 -10.419787 15.863099 -18.069636 -2.843182 -93.034205 15.339932 -5.101756 103.683494 -2.062247 -5.495676 9.199292 0.000000 0.000000 0.000000 4.534985 -6.788861 16.034330 3.448137 7.667044 -83.877462 -3.493903 -4.244393 69.764433 0.981431 3.619774 10.411332 0.000000 0.000000 0.000000 -2.314705 -5.069013 30.714070 -3.794956 3.125212 12.420568 3.186308 -3.827550 -1.597153 0.129570 -0.343236 -0.089768 3.528962 -3.349842 2.478586 3.258945 5.965947 -16.835494 0.000000 0.000000 0.000000 4.026290 -2.102753 -1.288662 -8.647386 -7.889719 1.744584 -55.500051 -27.896760 38.458975 -18.621117 -79.555749 22.334391 0.000000 0.000000 0.000000 1.776556 -1.520911 -1.770574 23.303262 21.950807 5.786987 45.940238 19.267836 28.701821 -4.114060 68.706744 -4.506221 0.000000 0.000000 0.000000 
-3.323525 26.726822 -2.782092 178.548043 0.225162 179.948273 -4.119557 -10.386240 15.806786 -18.084459 -2.763791 -93.028146 15.464532 -5.223628 103.818151 -2.330383 -5.465666 9.051639 0.000000 0.000000 0.000000 4.555003 -6.683884 15.913958 3.523232 7.651756 -83.928381 -3.456910 -4.305610 69.824314 0.864486 3.619984 10.584632 0.000000 0.000000 0.000000 -2.395318 -5.033031 30.653626 -3.786347 3.063886 12.390405 3.213700 -3.588360 -1.599860 0.145300 -0.412557 -0.090822 3.497418 -3.375026 2.459883 3.363951 5.815902 -16.841092 0.000000 0.000000 0.000000 4.006450 -2.102800 -1.298088 -8.643473 -7.809058 1.635593 -55.478017 -27.761302 38.391435 -18.924475 -79.433700 22.484407 0.000000 0.000000 0.000000 1.736453 -1.534776 -1.760103 23.294528 22.011722 5.898166 45.935201 19.195461 28.607607 -4.316255 68.660654 -4.742282 0.000000 0.000000 0.000000 
-3.300839 26.710350 -2.754920 178.562605 0.347444 179.981987 -4.046903 -10.304511 15.804921 -18.068804 -2.659250 -93.103620 15.868083 -5.322667 103.854638 -2.440207 -5.881148 8.918263 0.000000 0.000000 0.000000 4.579923 -6.551477 15.595316 3.648763 7.606299 -83.764197 -3.429523 -4.381017 69.979092 0.698319 3.605297 10.640917 0.000000 0.000000 0.000000 -2.395362 -4.896800 30.668946 -3.745190 3.052004 12.343818 3.191170 -3.815167 -1.659117 0.070243 -0.379990 -0.086061 3.579613 -3.151719 2.393412 3.426620 5.588716 -16.731885 0.000000 0.000000 0.000000 4.084964 -2.014405 -1.339895 -8.675828 -7.601719 1.865672 -55.365759 -27.703900 38.246450 -17.905404 -79.223070 21.298572 0.000000 0.000000 0.000000 1.819314 -1.451405 -1.741587 23.257045 22.000693 6.006529 45.994344 19.210954 28.464837 -4.125527 68.651256 -4.563827 0.000000 0.000000 0.000000 
-3.289473 26.695339 -2.760062 178.573821 0.455100 179.979938 -4.022657 -10.216744 15.850081 -18.145403 -2.579968 -93.160413 15.758508 -5.297657 103.921642 -2.463214 -5.723437 8.831103 0.000000 0.000000 0.000000 4.584791 -6.450384 15.514705 3.738379 7.574193 -83.773814 -3.403774 -4.448700 70.171499 0.524918 3.595389 10.704125 0.000000 0.000000 0.000000 -2.403951 -4.839959 30.592127 -3.597955 3.301872 12.304527 3.143669 -3.808969 -1.669731 0.097295 -0.371006 -0.088958 3.494383 -3.302471 2.358196 3.531094 5.348065 -16.658758 0.000000 0.000000 0.000000 4.035751 -2.066752 -1.308264 -8.647818 -7.480347 1.854082 -55.403240 -27.510810 37.848889 -18.313185 -78.793349 21.520913 0.000000 0.000000 0.000000 1.776097 -1.482071 -1.814591 23.311861 21.728672 6.111409 45.945603 19.173528 28.699953 -4.578151 68.571746 -5.017984 0.000000 0.000000 0.000000 
-3.308447 26.691719 -2.789283 178.552060 0.595546 179.998803 -4.035779 -10.185452 15.818324 -18.237042 -2.570546 -93.134854 15.897545 -5.412679 103.978490 -2.473280 -5.829556 8.757824 0.000000 0.000000 0.000000 4.569348 -6.449870 15.425813 3.791805 7.521251 -83.750291 -3.368427 -4.511030 70.356747 0.375432 3.629083 10.683142 0.000000 0.000000 0.000000 -2.618277 -5.018114 30.421748 -3.431815 3.383955 12.289222 3.153778 -3.662611 -1.660218 0.087983 -0.215769 -0.084843 3.377371 -3.197020 2.383871 3.626463 5.066832 -16.499533 0.000000 0.000000 0.000000 3.944687 -2.068830 -1.247989 -8.618790 -7.266504 1.879409 -55.461805 -27.442291 37.452144 -17.643808 -78.191309 20.587785 0.000000 0.000000 0.000000 1.661830 -1.539058 -1.783013 23.462135 21.788001 6.352152 45.691063 19.278897 28.762080 -4.999415 68.512576 -5.585310 0.000000 0.000000 0.000000 
